<?xml version="1.0" encoding="UTF-8"?>
<svg version="1.1" xmlns="http://www.w3.org/2000/svg" width="16" height="16">
<path d="M0 0 C5.28 0 10.56 0 16 0 C16 5.28 16 10.56 16 16 C10.72 16 5.44 16 0 16 C0 10.72 0 5.44 0 0 Z " fill="#575757" transform="translate(0,0)"/>
<path d="M0 0 C1.485 0.99 1.485 0.99 3 2 C3 3.32 3 4.64 3 6 C3.66 6 4.32 6 5 6 C5 4.35 5 2.7 5 1 C4.34 0.67 3.68 0.34 3 0 C4.32 0.33 5.64 0.66 7 1 C7 2.65 7 4.3 7 6 C6.01 6.33 5.02 6.66 4 7 C4 7.99 4 8.98 4 10 C3.34 10 2.68 10 2 10 C2 9.01 2 8.02 2 7 C1.01 6.67 0.02 6.34 -1 6 C-1.042721 4.33388095 -1.04063832 2.66617115 -1 1 C-0.67 0.67 -0.34 0.34 0 0 Z " fill="#C2C2C2" transform="translate(5,3)"/>
</svg>
